<?xml version="1.0" encoding="UTF-8" standalone="no"?>
<!-- Created with Inkscape (http://www.inkscape.org/) -->

<svg
   width="156.897mm"
   height="168.44501mm"
   viewBox="0 0 156.89701 168.44501"
   version="1.1"
   id="svg5"
   xml:space="preserve"
   inkscape:version="1.2 (dc2aedaf03, 2022-05-15)"
   sodipodi:docname="build-and-deploy-steps.svg"
   xmlns:inkscape="http://www.inkscape.org/namespaces/inkscape"
   xmlns:sodipodi="http://sodipodi.sourceforge.net/DTD/sodipodi-0.dtd"
   xmlns="http://www.w3.org/2000/svg"
   xmlns:svg="http://www.w3.org/2000/svg"><sodipodi:namedview
     id="namedview7"
     pagecolor="#ffffff"
     bordercolor="#cccccc"
     borderopacity="1"
     inkscape:showpageshadow="0"
     inkscape:pageopacity="1"
     inkscape:pagecheckerboard="0"
     inkscape:deskcolor="#d1d1d1"
     inkscape:document-units="mm"
     showgrid="false"
     inkscape:zoom="1"
     inkscape:cx="508"
     inkscape:cy="384"
     inkscape:window-width="1920"
     inkscape:window-height="1009"
     inkscape:window-x="-8"
     inkscape:window-y="-8"
     inkscape:window-maximized="1"
     inkscape:current-layer="layer1"><inkscape:grid
       type="xygrid"
       id="grid3226"
       dotted="false"
       originx="-2.2389789"
       originy="-2.3614764" /></sodipodi:namedview><defs
     id="defs2"><marker
       style="overflow:visible"
       id="Arrow4"
       refX="0"
       refY="0"
       orient="auto-start-reverse"
       inkscape:stockid="Arrow4"
       markerWidth="5"
       markerHeight="6"
       viewBox="0 0 5 6"
       inkscape:isstock="true"
       inkscape:collect="always"
       preserveAspectRatio="xMidYMid"><path
         style="fill:context-stroke;fill-rule:evenodd;stroke:none"
         d="m 1,0 -3,3 h -2 l 3,-3 -3,-3 h 2 z"
         id="path1741" /></marker><style
       id="style2682">.cls-1{fill:none;stroke:#556a8a;stroke-miterlimit:10;stroke-width:2px}</style><marker
       style="overflow:visible"
       id="Arrow4-8"
       refX="0"
       refY="0"
       orient="auto-start-reverse"
       inkscape:stockid="Arrow4"
       markerWidth="5"
       markerHeight="6"
       viewBox="0 0 5 6"
       inkscape:isstock="true"
       inkscape:collect="always"
       preserveAspectRatio="xMidYMid"><path
         style="fill:context-stroke;fill-rule:evenodd;stroke:none"
         d="m 1,0 -3,3 h -2 l 3,-3 -3,-3 h 2 z"
         id="path1741-7" /></marker><style
       id="style8309">.cls-1{fill:none;stroke:#556a8a;stroke-miterlimit:10;stroke-width:2px}</style><style
       id="style9849">.cls-1{fill:#a4c439}</style><style
       id="style11386">.cls-1{fill:none;stroke:#556a8a;stroke-miterlimit:10;stroke-width:2px}</style><style
       id="style11930">.cls-2{fill:#2bc7f4}</style><style
       id="style15362">.cls-1{fill:#a4c439}</style><marker
       style="overflow:visible"
       id="Arrow4-4"
       refX="0"
       refY="0"
       orient="auto-start-reverse"
       inkscape:stockid="Arrow4"
       markerWidth="5"
       markerHeight="6"
       viewBox="0 0 5 6"
       inkscape:isstock="true"
       inkscape:collect="always"
       preserveAspectRatio="xMidYMid"><path
         style="fill:context-stroke;fill-rule:evenodd;stroke:none"
         d="m 1,0 -3,3 h -2 l 3,-3 -3,-3 h 2 z"
         id="path1741-1" /></marker></defs><g
     inkscape:label="Layer 1"
     inkscape:groupmode="layer"
     id="layer1"
     transform="translate(-2.2389725,-2.3614736)"><g
       id="prep_for_deployment"><rect
         style="fill:#f2f2f2;fill-opacity:1;stroke-width:0.631992"
         id="rect393"
         width="94.106827"
         height="101.05435"
         x="4.2389956"
         y="4.4781404" /><text
         xml:space="preserve"
         style="font-style:normal;font-variant:normal;font-weight:normal;font-stretch:normal;font-size:7.76111px;font-family:'Segoe UI';-inkscape-font-specification:'Segoe UI';fill:#000000;stroke-width:0.264583"
         x="10.317311"
         y="14.684833"
         id="text337-0"><tspan
           sodipodi:role="line"
           style="font-style:normal;font-variant:normal;font-weight:normal;font-stretch:normal;font-size:7.76111px;font-family:'Segoe UI';-inkscape-font-specification:'Segoe UI';stroke-width:0.264583"
           x="10.317311"
           y="14.684833"
           id="tspan339-13">Prepare for deployment</tspan></text><g
         id="g3087"
         transform="translate(-3.8821206,6.9960398)"><g
           id="icon_blocks"
           transform="matrix(0.26458333,0,0,0.26458333,31.30875,15.263356)"><path
             fill="#2bc7f4"
             d="M 15,31 H 31 V 47 H 15 Z"
             id="path263" /><path
             fill="#bfc0c1"
             d="M 33,31 H 49 V 47 H 33 Z"
             id="path265" /><path
             fill="#55d2f6"
             d="M 24,13 H 40 V 29 H 24 Z"
             id="path267" /><path
             d="m 48,58 h 0.52 a 6,6 0 0 0 4.09,-1.79 c 1,-1 1.38,-2.74 1.38,-5.85 v -9.6 a 11.68,11.68 0 0 1 2.1,-6.56 5.9,5.9 0 0 1 3.2,-2.51 c -3.52,-1.19 -5.3,-4.16 -5.3,-8.82 v -9.8 c 0,-3.13 -0.42,-4.9 -1.4,-5.91 a 6.24,6.24 0 0 0 -4.17,-1.8 h -0.49 l 0.15,-2 h 0.51 A 8.26,8.26 0 0 1 54,5.77 c 1.37,1.41 2,3.59 2,7.3 v 9.76 c 0,4.21 1.7,6.58 5.19,7.24 L 62,30.22 v 2.88 l -0.78,0.15 a 4.63,4.63 0 0 0 -3.38,2 9.82,9.82 0 0 0 -1.84,5.47 v 9.6 c 0,3.69 -0.58,5.85 -2,7.25 A 7.86,7.86 0 0 1 48.76,60 h -0.48 z m -32,0 h -0.52 a 6,6 0 0 1 -4.09,-1.79 c -1,-1 -1.38,-2.74 -1.38,-5.85 v -9.6 A 11.68,11.68 0 0 0 7.91,34.2 5.9,5.9 0 0 0 4.71,31.69 c 3.52,-1.19 5.3,-4.16 5.3,-8.82 v -9.8 c 0,-3.13 0.42,-4.9 1.4,-5.91 a 6.24,6.24 0 0 1 4.17,-1.8 h 0.49 l -0.15,-2 H 15.41 A 8.26,8.26 0 0 0 10,5.77 C 8.63,7.18 8,9.36 8,13.07 v 9.76 C 8,27 6.3,29.42 2.81,30.07 L 2,30.23 v 2.87 l 0.78,0.15 a 4.63,4.63 0 0 1 3.38,2 9.82,9.82 0 0 1 1.84,5.47 v 9.6 c 0,3.69 0.58,5.85 2,7.25 A 7.86,7.86 0 0 0 15.24,60 h 0.48 z"
             fill="#556a8a"
             id="path269" /></g><text
           xml:space="preserve"
           style="font-style:normal;font-variant:normal;font-weight:normal;font-stretch:normal;font-size:3.175px;font-family:'Segoe UI';-inkscape-font-specification:'Segoe UI';fill:#000000;stroke-width:0.264583"
           x="54.252155"
           y="18.580114"
           id="text337"><tspan
             sodipodi:role="line"
             id="tspan335"
             style="font-style:normal;font-variant:normal;font-weight:normal;font-stretch:normal;font-family:'Segoe UI';-inkscape-font-specification:'Segoe UI';stroke-width:0.264583"
             x="54.252155"
             y="18.580114">Compile app for </tspan><tspan
             sodipodi:role="line"
             style="font-style:normal;font-variant:normal;font-weight:normal;font-stretch:normal;font-family:'Segoe UI';-inkscape-font-specification:'Segoe UI';stroke-width:0.264583"
             x="54.252155"
             y="22.548864"
             id="tspan339">release</tspan></text></g><g
         id="g3068"
         transform="translate(-2.2946208,13.619644)"><text
           xml:space="preserve"
           style="font-style:normal;font-variant:normal;font-weight:normal;font-stretch:normal;font-size:3.175px;font-family:'Segoe UI';-inkscape-font-specification:'Segoe UI';fill:#000000;stroke-width:0.264583"
           x="52.664654"
           y="43.735916"
           id="text337-6"><tspan
             sodipodi:role="line"
             style="font-style:normal;font-variant:normal;font-weight:normal;font-stretch:normal;font-family:'Segoe UI';-inkscape-font-specification:'Segoe UI';stroke-width:0.264583"
             x="52.664654"
             y="43.735916"
             id="tspan339-1">Create a private key, or</tspan><tspan
             sodipodi:role="line"
             style="font-style:normal;font-variant:normal;font-weight:normal;font-stretch:normal;font-family:'Segoe UI';-inkscape-font-specification:'Segoe UI';stroke-width:0.264583"
             x="52.664654"
             y="47.704666"
             id="tspan2848">use an existing trusted key</tspan></text><g
           id="icon_lock"
           transform="matrix(0.26458333,0,0,0.26458333,29.456667,40.794492)"><rect
             class="cls-1"
             x="18"
             y="3"
             width="27"
             height="36"
             rx="12"
             ry="12"
             id="rect2686"
             style="fill:#ffffff;fill-opacity:1" /><path
             d="m 54,27 v 32 a 2,2 0 0 1 -2,2 H 12 A 2,2 0 0 1 10,59 V 27 a 2,2 0 0 1 2,-2 h 40 a 2,2 0 0 1 2,2 z"
             fill="#ffffff"
             id="path2688"
             style="fill:#ffffff;fill-opacity:1" /><path
             fill="#e5e5e5"
             d="m 10,55 h 44 v 5 H 10 Z"
             id="path2690" /><path
             class="cls-1"
             d="m 54,59 a 2,2 0 0 1 -2,2 H 12 A 2,2 0 0 1 10,59 V 27 a 2,2 0 0 1 2,-2 h 40 a 2,2 0 0 1 2,2 z"
             id="path2692"
             style="fill:none;fill-opacity:1" /><path
             d="M 43.53,36.87 A 6.9,6.9 0 0 0 36.83,31 6.6,6.6 0 0 0 32,33 a 5.14,5.14 0 0 0 -0.38,0.42 6.48,6.48 0 0 0 -0.53,0.73 7.3,7.3 0 0 0 -1.94,-0.61 6.35,6.35 0 0 0 -1.07,-0.09 6.84,6.84 0 0 0 -3.48,1 7.11,7.11 0 0 0 -3,3.67 A 6,6 0 0 0 20.31,38 6.41,6.41 0 0 0 17.6,50.2 6.28,6.28 0 0 0 20,51 H 43.46 A 7.23,7.23 0 0 0 47,48.78 5.13,5.13 0 0 0 47.38,48.36 7.16,7.16 0 0 0 49,43.78 7,7 0 0 0 43.53,36.87 Z"
             fill="#2bc7f4"
             id="path2694" /><path
             d="m 49,43.78 a 7.16,7.16 0 0 1 -1.64,4.58 L 32,33 a 6.6,6.6 0 0 1 4.78,-2 6.9,6.9 0 0 1 6.7,5.87 7,7 0 0 1 5.52,6.91 z"
             fill="#55d2f6"
             id="path2696" /></g></g><g
         id="g3077"
         transform="translate(-4.4112876,13.572019)"><text
           xml:space="preserve"
           style="font-style:normal;font-variant:normal;font-weight:normal;font-stretch:normal;font-size:3.175px;font-family:'Segoe UI';-inkscape-font-specification:'Segoe UI';fill:#000000;stroke-width:0.264583"
           x="54.739464"
           y="74.436394"
           id="text337-6-9"><tspan
             sodipodi:role="line"
             style="font-style:normal;font-variant:normal;font-weight:normal;font-stretch:normal;font-family:'Segoe UI';-inkscape-font-specification:'Segoe UI';stroke-width:0.264583"
             x="54.739464"
             y="74.436394"
             id="tspan2848-7">Sign the APK</tspan></text><g
           id="icon_package"
           transform="matrix(0.26458333,0,0,0.26458333,31.837917,70.172055)"><path
             stroke="#556a8a"
             stroke-miterlimit="10"
             stroke-width="2"
             fill="#e5e5e5"
             d="M 5,11 H 59 V 56 H 5 Z"
             id="path2860" /><path
             fill="#2bc7f4"
             stroke="#556a8a"
             stroke-miterlimit="10"
             stroke-width="2"
             d="M 1,8 H 63 V 21 H 1 Z"
             id="path2862" /><path
             d="M 9,43 H 31 M 9,48 h 15"
             stroke="#556a8a"
             stroke-miterlimit="10"
             stroke-width="2"
             fill="none"
             id="path2864" /><path
             fill="#55d2f6"
             d="m 2,9 h 60 v 6 H 2 Z"
             id="path2866" /></g></g><path
         style="fill:#f2f2f2;fill-opacity:1;stroke:#000000;stroke-width:0.5;stroke-dasharray:none;stroke-opacity:1;marker-end:url(#Arrow4)"
         d="M 35.628713,41.743309 V 52.062058"
         id="path6994"
         sodipodi:nodetypes="cc" /><path
         style="fill:#f2f2f2;fill-opacity:1;stroke:#000000;stroke-width:0.5;stroke-dasharray:none;stroke-opacity:1;marker-end:url(#Arrow4-4)"
         d="M 35.628713,73.728718 V 84.047467"
         id="path6994-6"
         sodipodi:nodetypes="cc" /></g><g
       id="distribute_package"
       style="display:inline"><rect
         style="fill:#f2f2f2;fill-opacity:1;stroke-width:0.265578"
         id="rect2916"
         width="152.89697"
         height="33.937298"
         x="4.2389956"
         y="134.53627" /><text
         xml:space="preserve"
         style="font-style:normal;font-variant:normal;font-weight:normal;font-stretch:normal;font-size:3.175px;font-family:'Segoe UI';-inkscape-font-specification:'Segoe UI';fill:#000000;stroke-width:0.264583"
         x="28.180021"
         y="147.68802"
         id="text337-6-9-4"><tspan
           sodipodi:role="line"
           style="font-style:normal;font-variant:normal;font-weight:normal;font-stretch:normal;font-family:'Segoe UI';-inkscape-font-specification:'Segoe UI';stroke-width:0.264583"
           x="28.180021"
           y="147.68802"
           id="tspan2848-7-7">Google Play</tspan></text><text
         xml:space="preserve"
         style="font-style:normal;font-variant:normal;font-weight:normal;font-stretch:normal;font-size:3.175px;font-family:'Segoe UI';-inkscape-font-specification:'Segoe UI';fill:#000000;stroke-width:0.264583"
         x="76.445816"
         y="147.63298"
         id="text337-6-9-4-8"><tspan
           sodipodi:role="line"
           style="font-style:normal;font-variant:normal;font-weight:normal;font-stretch:normal;font-family:'Segoe UI';-inkscape-font-specification:'Segoe UI';stroke-width:0.264583"
           x="76.445816"
           y="147.63298"
           id="tspan2848-7-7-1">Amazon app store</tspan></text><text
         xml:space="preserve"
         style="font-style:normal;font-variant:normal;font-weight:normal;font-stretch:normal;font-size:3.175px;font-family:'Segoe UI';-inkscape-font-specification:'Segoe UI';fill:#000000;stroke-width:0.264583"
         x="131.62582"
         y="148.06009"
         id="text337-6-9-4-87"><tspan
           sodipodi:role="line"
           style="font-style:normal;font-variant:normal;font-weight:normal;font-stretch:normal;font-family:'Segoe UI';-inkscape-font-specification:'Segoe UI';stroke-width:0.264583"
           x="131.62582"
           y="148.06009"
           id="tspan2114">Side-loaded file</tspan></text><text
         xml:space="preserve"
         style="font-style:normal;font-variant:normal;font-weight:normal;font-stretch:normal;font-size:7.76111px;font-family:'Segoe UI';-inkscape-font-specification:'Segoe UI';fill:#000000;stroke-width:0.264583"
         x="47.306164"
         y="164.0092"
         id="text337-0-9"><tspan
           sodipodi:role="line"
           style="font-style:normal;font-variant:normal;font-weight:normal;font-stretch:normal;font-size:7.76111px;font-family:'Segoe UI';-inkscape-font-specification:'Segoe UI';stroke-width:0.264583"
           x="47.306164"
           y="164.0092"
           id="tspan339-13-8">Distribute package</tspan></text><g
         id="icon_phone"
         transform="matrix(0.26458333,0,0,0.26458333,54.290625,138.7666)"
         style="display:inline"><path
           d="m 52,60 a 3,3 0 0 1 -3,3 H 17 A 3,3 0 0 1 14,60 V 4 a 3,3 0 0 1 3,-3 h 32 a 3,3 0 0 1 3,3 z"
           fill="#ffffff"
           stroke="#556a8a"
           stroke-miterlimit="10"
           stroke-width="2"
           id="path11934" /><rect
           class="cls-2"
           x="23"
           y="4"
           width="20"
           height="2"
           rx="1"
           ry="1"
           id="rect11936" /><circle
           class="cls-2"
           cx="32"
           cy="59"
           r="2"
           id="circle11938" /><path
           fill="#e5e5e5"
           d="M 15,7 H 51 V 56 H 15 Z"
           id="path11940" /><path
           d="m 19,22.95 v 0.27 l 14,8.21 14,-8.21 V 22.95 L 33,14.74 Z M 32,33.17 19,25.54 V 39.37 L 32,47 Z"
           fill="#55d2f6"
           id="path11942" /><path
           class="cls-2"
           d="M 34,33.17 V 47 L 47,39.37 V 25.54 Z"
           id="path11944" /></g><g
         id="icon_no_cloud"
         transform="matrix(0.26458333,0,0,0.26458333,111.69891,139.10029)"><path
           d="m 12.78,17 a 14.56,14.56 0 0 0 -2,5.5 C 5.16,23.83 1,29.49 1,36.09 1,42.69 5.84,52.9 18.44,51.94 H 47.7 Z M 55.2,51 C 58.76,49.6 63,46.33 63,38.41 A 11.6,11.6 0 0 0 48.19,27.27 10.64,10.64 0 0 0 32.19,15.9 11.61,11.61 0 0 0 22.83,11 11,11 0 0 0 17,12.73 Z"
           fill="#ffffff"
           id="path13845" /><path
           d="m 17.7,13.46 a 10,10 0 0 1 5.13,-1.46 10.62,10.62 0 0 1 8.51,4.49 l 0.55,0.74 0.78,-0.49 A 9.62,9.62 0 0 1 47.22,27 l -0.38,1.65 1.63,-0.46 A 10.6,10.6 0 0 1 62,38.41 C 62,46 57.82,49 54.42,50.17 L 56,51.73 c 4.36,-1.85 8,-6 8,-13.32 a 12.62,12.62 0 0 0 -12.62,-12.59 12.42,12.42 0 0 0 -2,0.16 q 0.05,-0.55 0.05,-1.09 A 11.65,11.65 0 0 0 32.39,14.6 12.49,12.49 0 0 0 22.83,10 12,12 0 0 0 16.25,12 Z M 46.7,51 H 18.36 C 13.68,51.36 9.81,50.09 6.86,47.36 A 16.08,16.08 0 0 1 2,36.09 C 2,30 5.81,24.71 11,23.5 l 0.67,-0.15 0.1,-0.68 a 13.55,13.55 0 0 1 1.7,-4.91 L 12.02,16.31 A 15.42,15.42 0 0 0 9.9,21.72 C 4.14,23.41 0,29.33 0,36.09 A 17.91,17.91 0 0 0 5.51,48.83 16.21,16.21 0 0 0 16.78,53 H 48.7 Z"
           fill="#556a8a"
           id="path13847" /><path
           fill="#2bc7f4"
           d="M 6.299,7.71 7.713,6.296 61.715,60.298 60.301,61.712 Z"
           id="path13849" /></g><g
         id="icon_android"
         transform="matrix(0.26458333,0,0,0.26458333,6.4010413,137.93858)"><rect
           class="cls-1"
           x="23.290001"
           y="-0.28"
           width="1"
           height="9"
           rx="0.5"
           ry="0.5"
           transform="rotate(-35,23.791,4.224)"
           id="rect15366" /><rect
           class="cls-1"
           x="41.130001"
           y="-0.28"
           width="1"
           height="9"
           rx="0.5"
           ry="0.5"
           transform="rotate(-145,41.625,4.224)"
           id="rect15368" /><path
           class="cls-1"
           d="M 10,22 A 3.94,3.94 0 0 0 6,25.88 V 42.12 A 3.94,3.94 0 0 0 10,46 3.94,3.94 0 0 0 14,42.12 V 25.88 A 3.94,3.94 0 0 0 10,22 m 15,17 a 3.94,3.94 0 0 0 -4,3.88 v 16.24 a 4,4 0 0 0 8,0 V 42.88 A 3.94,3.94 0 0 0 25,39 m 14,0 a 3.94,3.94 0 0 0 -4,3.88 v 16.24 a 4,4 0 0 0 8,0 V 42.88 A 3.94,3.94 0 0 0 39,39 M 54,22 a 3.94,3.94 0 0 0 -4,3.88 v 16.24 a 4,4 0 0 0 8,0 V 25.88 A 3.94,3.94 0 0 0 54,22"
           id="path15370" /><path
           class="cls-1"
           d="m 15,45 a 5.93,5.93 0 0 0 5.83,6 H 43.17 A 5.93,5.93 0 0 0 49,45 V 23 H 15 Z M 49,21.93 a 17,17 0 0 0 -34,0 z"
           id="path15372" /><path
           d="M 39.5,15 A 1.5,1.5 0 1 1 41,13.5 1.5,1.5 0 0 1 39.5,15 m -15,0 A 1.5,1.5 0 1 1 26,13.5 1.5,1.5 0 0 1 24.5,15"
           fill="#ffffff"
           id="path15374" /></g></g><path
       style="fill:none;stroke:#000001;stroke-width:0.499999;stroke-dasharray:none;marker-end:url(#Arrow4-8)"
       d="m 35.628713,100.65404 v 10.51718 c -3.968748,9.03439 -20.761005,6.60371 -20.425157,19.05"
       id="path1959"
       sodipodi:nodetypes="ccc" /><path
       style="fill:none;stroke:#000001;stroke-width:0.499999;stroke-dasharray:none;marker-end:url(#Arrow4-8)"
       d="m 35.628713,100.65404 v 10.51718 c -0.18385,8.11389 27.393162,5.73572 27.39316,19.24844"
       id="path1961"
       sodipodi:nodetypes="ccc" /><path
       style="fill:none;stroke:#000001;stroke-width:0.499999;stroke-dasharray:none;marker-end:url(#Arrow4-8)"
       d="m 35.628713,100.65404 v 10.51718 c 15.191491,13.07482 83.220507,-9.73565 83.423797,19.44688"
       id="path1963"
       sodipodi:nodetypes="ccc" /></g></svg>
