<?xml version="1.0" encoding="utf-8"?>
<!-- Generator: Adobe Illustrator 25.2.3, SVG Export Plug-In . SVG Version: 6.00 Build 0)  -->
<svg version="1.1" id="Layer_1" xmlns="http://www.w3.org/2000/svg" xmlns:xlink="http://www.w3.org/1999/xlink" x="0px" y="0px"
	 viewBox="0 0 288 36" style="enable-background:new 0 0 288 36;" xml:space="preserve">
<style type="text/css">
	.st0{fill-rule:evenodd;clip-rule:evenodd;fill:#0067B8;}
	.st1{fill:#FFFFFF;}
</style>
<path class="st0" d="M0,0h288v36H0V0z"/>
<path class="st1" d="M265.8,26v-0.9h8.4V26H265.8z M274.6,18.8l-4.5,4.6l-4.5-4.6l0.7-0.7l3.4,3.4V11h0.9v10.6l3.4-3.4L274.6,18.8z"
	/>
<path class="st1" d="M11.4,23V12.5h2.9c3.7,0,5.6,1.7,5.6,5.1c0,1.6-0.5,2.9-1.5,3.9c-1,1-2.4,1.5-4.1,1.5H11.4z M12.6,13.6v8.3h1.6
	c1.4,0,2.4-0.4,3.2-1.1c0.8-0.7,1.1-1.8,1.1-3.1c0-2.7-1.4-4-4.3-4H12.6z M24.9,23.2c-1.1,0-2-0.3-2.7-1c-0.7-0.7-1-1.6-1-2.8
	c0-1.3,0.3-2.2,1-3c0.7-0.7,1.6-1.1,2.8-1.1c1.1,0,2,0.3,2.6,1c0.6,0.7,0.9,1.6,0.9,2.9c0,1.2-0.3,2.2-1,2.9
	C26.9,22.8,26,23.2,24.9,23.2z M25,16.3c-0.8,0-1.4,0.3-1.8,0.8c-0.4,0.5-0.7,1.2-0.7,2.2c0,0.9,0.2,1.6,0.7,2.1
	c0.5,0.5,1.1,0.8,1.8,0.8c0.8,0,1.4-0.3,1.8-0.8c0.4-0.5,0.6-1.2,0.6-2.1c0-0.9-0.2-1.7-0.6-2.2C26.3,16.6,25.7,16.3,25,16.3z
	 M40,15.5L37.7,23h-1.2l-1.5-5.4c-0.1-0.2-0.1-0.4-0.1-0.7h0c0,0.2-0.1,0.4-0.2,0.7L33,23h-1.2l-2.3-7.5h1.3l1.6,5.6
	c0,0.2,0.1,0.4,0.1,0.7h0.1c0-0.2,0.1-0.4,0.1-0.7l1.7-5.6h1.1l1.6,5.7c0,0.2,0.1,0.4,0.1,0.7h0.1c0-0.2,0.1-0.4,0.1-0.7l1.5-5.7H40
	z M47.6,23h-1.2v-4.3c0-1.6-0.6-2.4-1.7-2.4c-0.6,0-1.1,0.2-1.5,0.7c-0.4,0.4-0.6,1-0.6,1.7V23h-1.2v-7.5h1.2v1.2h0
	c0.6-0.9,1.4-1.4,2.5-1.4c0.8,0,1.4,0.3,1.9,0.8c0.4,0.5,0.7,1.3,0.7,2.3V23z M51.1,23h-1.2V11.9h1.2V23z M56.6,23.2
	c-1.1,0-2-0.3-2.7-1c-0.7-0.7-1-1.6-1-2.8c0-1.3,0.3-2.2,1-3c0.7-0.7,1.6-1.1,2.8-1.1c1.1,0,2,0.3,2.6,1c0.6,0.7,0.9,1.6,0.9,2.9
	c0,1.2-0.3,2.2-1,2.9C58.7,22.8,57.8,23.2,56.6,23.2z M56.7,16.3c-0.8,0-1.4,0.3-1.8,0.8c-0.4,0.5-0.7,1.2-0.7,2.2
	c0,0.9,0.2,1.6,0.7,2.1c0.5,0.5,1.1,0.8,1.8,0.8c0.8,0,1.4-0.3,1.8-0.8c0.4-0.5,0.6-1.2,0.6-2.1c0-0.9-0.2-1.7-0.6-2.2
	C58.1,16.6,57.5,16.3,56.7,16.3z M67.6,23h-1.2v-1.2h0c-0.5,0.9-1.3,1.3-2.3,1.3c-0.7,0-1.3-0.2-1.8-0.6c-0.4-0.4-0.6-0.9-0.6-1.6
	c0-1.4,0.8-2.2,2.5-2.4l2.2-0.3c0-1.3-0.5-1.9-1.5-1.9c-0.9,0-1.7,0.3-2.4,0.9V16c0.7-0.5,1.6-0.7,2.5-0.7c1.8,0,2.6,0.9,2.6,2.8V23
	z M66.4,19.2l-1.8,0.2c-0.6,0.1-1,0.2-1.3,0.4c-0.3,0.2-0.4,0.5-0.4,1c0,0.4,0.1,0.7,0.4,0.9c0.3,0.2,0.6,0.3,1,0.3
	c0.6,0,1.1-0.2,1.5-0.6c0.4-0.4,0.6-0.9,0.6-1.6V19.2z M76.3,23h-1.2v-1.3h0c-0.6,1-1.4,1.5-2.6,1.5c-0.9,0-1.7-0.3-2.3-1
	c-0.6-0.7-0.8-1.6-0.8-2.7c0-1.2,0.3-2.2,0.9-3c0.6-0.7,1.5-1.1,2.5-1.1c1,0,1.8,0.4,2.2,1.2h0v-4.6h1.2V23z M75.1,19.6v-1.1
	c0-0.6-0.2-1.1-0.6-1.5c-0.4-0.4-0.9-0.6-1.5-0.6c-0.7,0-1.3,0.3-1.7,0.8c-0.4,0.5-0.6,1.3-0.6,2.2c0,0.9,0.2,1.5,0.6,2.1
	c0.4,0.5,0.9,0.7,1.6,0.7c0.7,0,1.2-0.2,1.6-0.7C74.9,21,75.1,20.3,75.1,19.6z M84.3,19v4H83V12.5h2.9c1.1,0,2,0.3,2.6,0.8
	c0.6,0.5,0.9,1.3,0.9,2.3s-0.3,1.8-1,2.4c-0.7,0.6-1.6,1-2.8,1H84.3z M84.3,13.6v4.3h1.3c0.8,0,1.5-0.2,1.9-0.6
	c0.4-0.4,0.7-0.9,0.7-1.6c0-1.4-0.8-2.1-2.5-2.1H84.3z M95.2,16.7c-0.2-0.2-0.5-0.2-0.9-0.2c-0.5,0-0.9,0.2-1.3,0.7
	c-0.3,0.5-0.5,1.1-0.5,2V23h-1.2v-7.5h1.2V17h0c0.2-0.5,0.4-0.9,0.8-1.2c0.4-0.3,0.7-0.4,1.2-0.4c0.3,0,0.6,0,0.7,0.1V16.7z
	 M99.6,23.2c-1.1,0-2-0.3-2.7-1c-0.7-0.7-1-1.6-1-2.8c0-1.3,0.3-2.2,1-3s1.6-1.1,2.8-1.1c1.1,0,2,0.3,2.6,1c0.6,0.7,0.9,1.6,0.9,2.9
	c0,1.2-0.3,2.2-1,2.9C101.7,22.8,100.8,23.2,99.6,23.2z M99.7,16.3c-0.8,0-1.4,0.3-1.8,0.8c-0.4,0.5-0.7,1.2-0.7,2.2
	c0,0.9,0.2,1.6,0.7,2.1c0.5,0.5,1.1,0.8,1.8,0.8c0.8,0,1.4-0.3,1.8-0.8c0.4-0.5,0.6-1.2,0.6-2.1c0-0.9-0.2-1.7-0.6-2.2
	C101.1,16.6,100.5,16.3,99.7,16.3z M109,13c-0.2-0.1-0.5-0.2-0.8-0.2c-0.8,0-1.3,0.5-1.3,1.6v1.2h1.8v1h-1.8V23h-1.2v-6.5h-1.3v-1
	h1.3v-1.2c0-0.8,0.2-1.4,0.7-1.9c0.5-0.5,1-0.7,1.7-0.7c0.4,0,0.7,0,0.9,0.1V13z M116,19.6h-5.3c0,0.8,0.2,1.5,0.7,1.9
	c0.4,0.5,1,0.7,1.8,0.7c0.8,0,1.6-0.3,2.3-0.8v1.1c-0.7,0.5-1.5,0.7-2.6,0.7c-1.1,0-1.9-0.3-2.5-1c-0.6-0.7-0.9-1.6-0.9-2.9
	c0-1.2,0.3-2.1,1-2.8c0.7-0.7,1.5-1.1,2.5-1.1c1,0,1.7,0.3,2.3,1c0.5,0.6,0.8,1.5,0.8,2.6V19.6z M114.8,18.5c0-0.7-0.2-1.2-0.5-1.6
	c-0.3-0.4-0.8-0.6-1.4-0.6c-0.6,0-1,0.2-1.4,0.6c-0.4,0.4-0.6,0.9-0.7,1.6H114.8z M117.4,22.7v-1.3c0.7,0.5,1.4,0.7,2.2,0.7
	c1.1,0,1.6-0.4,1.6-1.1c0-0.2,0-0.4-0.1-0.5c-0.1-0.1-0.2-0.3-0.4-0.4c-0.2-0.1-0.3-0.2-0.5-0.3c-0.2-0.1-0.4-0.2-0.7-0.3
	c-0.3-0.1-0.6-0.3-0.9-0.4c-0.2-0.1-0.5-0.3-0.6-0.5c-0.2-0.2-0.3-0.4-0.4-0.6c-0.1-0.2-0.1-0.5-0.1-0.8c0-0.4,0.1-0.7,0.2-0.9
	c0.2-0.3,0.4-0.5,0.6-0.7c0.3-0.2,0.6-0.3,0.9-0.4c0.3-0.1,0.7-0.1,1.1-0.1c0.6,0,1.2,0.1,1.7,0.3v1.2c-0.6-0.4-1.2-0.5-1.9-0.5
	c-0.2,0-0.4,0-0.6,0.1c-0.2,0-0.3,0.1-0.5,0.2c-0.1,0.1-0.2,0.2-0.3,0.3c-0.1,0.1-0.1,0.3-0.1,0.4c0,0.2,0,0.4,0.1,0.5
	c0.1,0.1,0.2,0.2,0.3,0.4c0.1,0.1,0.3,0.2,0.5,0.3c0.2,0.1,0.4,0.2,0.7,0.3c0.3,0.1,0.6,0.3,0.9,0.4c0.3,0.1,0.5,0.3,0.7,0.5
	c0.2,0.2,0.3,0.4,0.4,0.6c0.1,0.2,0.2,0.5,0.2,0.8c0,0.4-0.1,0.7-0.2,1c-0.2,0.3-0.4,0.5-0.7,0.7c-0.3,0.2-0.6,0.3-0.9,0.4
	c-0.4,0.1-0.7,0.1-1.1,0.1C118.6,23.2,117.9,23,117.4,22.7z M123.7,22.7v-1.3c0.7,0.5,1.4,0.7,2.2,0.7c1.1,0,1.6-0.4,1.6-1.1
	c0-0.2,0-0.4-0.1-0.5c-0.1-0.1-0.2-0.3-0.4-0.4c-0.2-0.1-0.3-0.2-0.5-0.3c-0.2-0.1-0.4-0.2-0.7-0.3c-0.3-0.1-0.6-0.3-0.9-0.4
	c-0.2-0.1-0.5-0.3-0.6-0.5c-0.2-0.2-0.3-0.4-0.4-0.6c-0.1-0.2-0.1-0.5-0.1-0.8c0-0.4,0.1-0.7,0.2-0.9c0.2-0.3,0.4-0.5,0.6-0.7
	c0.3-0.2,0.6-0.3,0.9-0.4c0.3-0.1,0.7-0.1,1.1-0.1c0.6,0,1.2,0.1,1.7,0.3v1.2c-0.6-0.4-1.2-0.5-1.9-0.5c-0.2,0-0.4,0-0.6,0.1
	c-0.2,0-0.3,0.1-0.5,0.2c-0.1,0.1-0.2,0.2-0.3,0.3c-0.1,0.1-0.1,0.3-0.1,0.4c0,0.2,0,0.4,0.1,0.5c0.1,0.1,0.2,0.2,0.3,0.4
	c0.1,0.1,0.3,0.2,0.5,0.3c0.2,0.1,0.4,0.2,0.7,0.3c0.3,0.1,0.6,0.3,0.9,0.4c0.3,0.1,0.5,0.3,0.7,0.5c0.2,0.2,0.3,0.4,0.4,0.6
	c0.1,0.2,0.2,0.5,0.2,0.8c0,0.4-0.1,0.7-0.2,1c-0.2,0.3-0.4,0.5-0.7,0.7c-0.3,0.2-0.6,0.3-0.9,0.4c-0.4,0.1-0.7,0.1-1.1,0.1
	C125,23.2,124.3,23,123.7,22.7z M131.2,13.6c-0.2,0-0.4-0.1-0.6-0.2c-0.2-0.1-0.2-0.3-0.2-0.6s0.1-0.4,0.2-0.6
	c0.2-0.2,0.3-0.2,0.6-0.2c0.2,0,0.4,0.1,0.6,0.2c0.2,0.1,0.2,0.3,0.2,0.6c0,0.2-0.1,0.4-0.2,0.5C131.6,13.5,131.4,13.6,131.2,13.6z
	 M131.8,23h-1.2v-7.5h1.2V23z M137.3,23.2c-1.1,0-2-0.3-2.7-1c-0.7-0.7-1-1.6-1-2.8c0-1.3,0.3-2.2,1-3c0.7-0.7,1.6-1.1,2.8-1.1
	c1.1,0,2,0.3,2.6,1c0.6,0.7,0.9,1.6,0.9,2.9c0,1.2-0.3,2.2-1,2.9C139.4,22.8,138.5,23.2,137.3,23.2z M137.4,16.3
	c-0.8,0-1.4,0.3-1.8,0.8c-0.4,0.5-0.7,1.2-0.7,2.2c0,0.9,0.2,1.6,0.7,2.1c0.5,0.5,1.1,0.8,1.8,0.8c0.8,0,1.4-0.3,1.8-0.8
	c0.4-0.5,0.6-1.2,0.6-2.1c0-0.9-0.2-1.7-0.6-2.2C138.8,16.6,138.2,16.3,137.4,16.3z M149.2,23H148v-4.3c0-1.6-0.6-2.4-1.7-2.4
	c-0.6,0-1.1,0.2-1.5,0.7c-0.4,0.4-0.6,1-0.6,1.7V23H143v-7.5h1.2v1.2h0c0.6-0.9,1.4-1.4,2.5-1.4c0.8,0,1.4,0.3,1.9,0.8
	c0.4,0.5,0.7,1.3,0.7,2.3V23z M156.9,23h-1.2v-1.2h0c-0.5,0.9-1.3,1.3-2.3,1.3c-0.7,0-1.3-0.2-1.8-0.6c-0.4-0.4-0.6-0.9-0.6-1.6
	c0-1.4,0.8-2.2,2.5-2.4l2.2-0.3c0-1.3-0.5-1.9-1.5-1.9c-0.9,0-1.7,0.3-2.4,0.9V16c0.7-0.5,1.6-0.7,2.5-0.7c1.8,0,2.6,0.9,2.6,2.8V23
	z M155.7,19.2l-1.8,0.2c-0.6,0.1-1,0.2-1.3,0.4c-0.3,0.2-0.4,0.5-0.4,1c0,0.4,0.1,0.7,0.4,0.9c0.3,0.2,0.6,0.3,1,0.3
	c0.6,0,1.1-0.2,1.5-0.6c0.4-0.4,0.6-0.9,0.6-1.6V19.2z M160.3,23h-1.2V11.9h1.2V23z M171.3,15.3c0-0.3-0.1-0.6-0.2-0.8
	c-0.1-0.2-0.2-0.4-0.4-0.6c-0.2-0.2-0.4-0.3-0.6-0.4c-0.2-0.1-0.5-0.1-0.8-0.1c-0.2,0-0.5,0-0.7,0.1c-0.2,0.1-0.4,0.2-0.7,0.3
	c-0.2,0.1-0.4,0.2-0.6,0.4c-0.2,0.2-0.4,0.3-0.5,0.5v-1.3c0.3-0.3,0.7-0.6,1.1-0.7c0.4-0.2,0.9-0.3,1.5-0.3c0.4,0,0.8,0.1,1.2,0.2
	c0.4,0.1,0.7,0.3,1,0.5c0.3,0.2,0.5,0.5,0.6,0.9c0.2,0.4,0.2,0.8,0.2,1.2c0,0.4,0,0.8-0.1,1.1c-0.1,0.3-0.2,0.7-0.4,1
	c-0.2,0.3-0.4,0.6-0.7,0.9c-0.3,0.3-0.6,0.6-1,0.8c-0.5,0.4-0.9,0.7-1.2,0.9c-0.3,0.2-0.6,0.5-0.8,0.7c-0.2,0.2-0.3,0.4-0.4,0.7
	c-0.1,0.2-0.1,0.5-0.1,0.7h5.2V23h-6.5v-0.5c0-0.4,0-0.8,0.1-1.2c0.1-0.3,0.3-0.7,0.5-1c0.2-0.3,0.5-0.6,0.9-0.9
	c0.4-0.3,0.8-0.7,1.3-1c0.4-0.3,0.7-0.5,1-0.8c0.3-0.2,0.5-0.5,0.6-0.7c0.2-0.2,0.3-0.5,0.3-0.8C171.3,15.8,171.3,15.5,171.3,15.3z
	 M181.2,17.7c0,0.9-0.1,1.7-0.2,2.3c-0.2,0.7-0.4,1.3-0.7,1.7c-0.3,0.5-0.7,0.8-1.1,1.1c-0.4,0.2-0.9,0.4-1.5,0.4
	c-0.5,0-1-0.1-1.4-0.3c-0.4-0.2-0.8-0.6-1-1c-0.3-0.4-0.5-1-0.6-1.6c-0.1-0.6-0.2-1.4-0.2-2.2c0-0.9,0.1-1.7,0.2-2.4
	c0.2-0.7,0.4-1.3,0.7-1.8c0.3-0.5,0.7-0.8,1.1-1.1c0.4-0.2,1-0.4,1.5-0.4C180.1,12.3,181.2,14.1,181.2,17.7z M180,17.8
	c0-3-0.7-4.5-2.1-4.5c-1.5,0-2.2,1.5-2.2,4.6c0,2.8,0.7,4.3,2.2,4.3C179.3,22.2,180,20.7,180,17.8z M204.7,19v4h-1.2V12.5h2.9
	c1.1,0,2,0.3,2.6,0.8c0.6,0.5,0.9,1.3,0.9,2.3s-0.3,1.8-1,2.4c-0.7,0.6-1.6,1-2.8,1H204.7z M204.7,13.6v4.3h1.3
	c0.8,0,1.5-0.2,1.9-0.6c0.4-0.4,0.7-0.9,0.7-1.6c0-1.4-0.8-2.1-2.5-2.1H204.7z M215.6,16.7c-0.2-0.2-0.5-0.2-0.9-0.2
	c-0.5,0-0.9,0.2-1.3,0.7c-0.3,0.5-0.5,1.1-0.5,2V23h-1.2v-7.5h1.2V17h0c0.2-0.5,0.4-0.9,0.8-1.2c0.4-0.3,0.7-0.4,1.2-0.4
	c0.3,0,0.6,0,0.7,0.1V16.7z M223,19.6h-5.3c0,0.8,0.2,1.5,0.7,1.9c0.4,0.5,1,0.7,1.8,0.7c0.8,0,1.6-0.3,2.3-0.8v1.1
	c-0.7,0.5-1.5,0.7-2.6,0.7c-1.1,0-1.9-0.3-2.5-1c-0.6-0.7-0.9-1.6-0.9-2.9c0-1.2,0.3-2.1,1-2.8c0.7-0.7,1.5-1.1,2.5-1.1
	c1,0,1.7,0.3,2.3,1c0.5,0.6,0.8,1.5,0.8,2.6V19.6z M221.8,18.5c0-0.7-0.2-1.2-0.5-1.6c-0.3-0.4-0.8-0.6-1.4-0.6
	c-0.6,0-1,0.2-1.4,0.6c-0.4,0.4-0.6,0.9-0.7,1.6H221.8z M230.7,15.5l-3,7.5h-1.2l-2.8-7.5h1.3l1.9,5.4c0.1,0.4,0.2,0.7,0.3,1h0
	c0-0.4,0.1-0.7,0.2-1l2-5.5H230.7z M232.6,13.6c-0.2,0-0.4-0.1-0.5-0.2c-0.2-0.1-0.2-0.3-0.2-0.6s0.1-0.4,0.2-0.6
	c0.2-0.2,0.3-0.2,0.5-0.2c0.2,0,0.4,0.1,0.6,0.2c0.2,0.1,0.2,0.3,0.2,0.6c0,0.2-0.1,0.4-0.2,0.5C233,13.5,232.8,13.6,232.6,13.6z
	 M233.2,23H232v-7.5h1.2V23z M241.7,19.6h-5.3c0,0.8,0.2,1.5,0.7,1.9c0.4,0.5,1,0.7,1.8,0.7c0.8,0,1.6-0.3,2.3-0.8v1.1
	c-0.7,0.5-1.5,0.7-2.6,0.7c-1.1,0-1.9-0.3-2.5-1c-0.6-0.7-0.9-1.6-0.9-2.9c0-1.2,0.3-2.1,1-2.8c0.7-0.7,1.5-1.1,2.5-1.1
	c1,0,1.7,0.3,2.3,1c0.5,0.6,0.8,1.5,0.8,2.6V19.6z M240.4,18.5c0-0.7-0.2-1.2-0.5-1.6c-0.3-0.4-0.8-0.6-1.4-0.6
	c-0.6,0-1,0.2-1.4,0.6c-0.4,0.4-0.6,0.9-0.7,1.6H240.4z M252.9,15.5l-2.2,7.5h-1.2l-1.5-5.4c-0.1-0.2-0.1-0.4-0.1-0.7h0
	c0,0.2-0.1,0.4-0.2,0.7l-1.7,5.4h-1.2l-2.3-7.5h1.3l1.6,5.6c0,0.2,0.1,0.4,0.1,0.7h0.1c0-0.2,0.1-0.4,0.1-0.7l1.7-5.6h1.1l1.6,5.7
	c0,0.2,0.1,0.4,0.1,0.7h0.1c0-0.2,0.1-0.4,0.1-0.7l1.5-5.7H252.9z M187.5,15.3c0-0.3-0.1-0.6-0.2-0.8c-0.1-0.2-0.2-0.4-0.4-0.6
	c-0.2-0.2-0.4-0.3-0.6-0.4c-0.2-0.1-0.5-0.1-0.8-0.1c-0.2,0-0.5,0-0.7,0.1c-0.2,0.1-0.4,0.2-0.7,0.3c-0.2,0.1-0.4,0.2-0.6,0.4
	c-0.2,0.2-0.4,0.3-0.5,0.5v-1.3c0.3-0.3,0.7-0.6,1.1-0.7c0.4-0.2,0.9-0.3,1.5-0.3c0.4,0,0.8,0.1,1.2,0.2c0.4,0.1,0.7,0.3,1,0.5
	c0.3,0.2,0.5,0.5,0.6,0.9c0.2,0.4,0.2,0.8,0.2,1.2c0,0.4,0,0.8-0.1,1.1c-0.1,0.3-0.2,0.7-0.4,1c-0.2,0.3-0.4,0.6-0.7,0.9
	c-0.3,0.3-0.6,0.6-1,0.8c-0.5,0.4-0.9,0.7-1.2,0.9c-0.3,0.2-0.6,0.5-0.8,0.7c-0.2,0.2-0.3,0.4-0.4,0.7c-0.1,0.2-0.1,0.5-0.1,0.7h5.2
	V23h-6.5v-0.5c0-0.4,0-0.8,0.1-1.2c0.1-0.3,0.3-0.7,0.5-1c0.2-0.3,0.5-0.6,0.9-0.9c0.4-0.3,0.8-0.7,1.3-1c0.4-0.3,0.7-0.5,1-0.8
	c0.3-0.2,0.5-0.5,0.6-0.7c0.2-0.2,0.3-0.5,0.3-0.8C187.4,15.8,187.5,15.5,187.5,15.3z M195.6,15.3c0-0.3-0.1-0.6-0.2-0.8
	c-0.1-0.2-0.2-0.4-0.4-0.6c-0.2-0.2-0.4-0.3-0.6-0.4c-0.2-0.1-0.5-0.1-0.8-0.1c-0.2,0-0.5,0-0.7,0.1c-0.2,0.1-0.4,0.2-0.7,0.3
	c-0.2,0.1-0.4,0.2-0.6,0.4c-0.2,0.2-0.4,0.3-0.5,0.5v-1.3c0.3-0.3,0.7-0.6,1.1-0.7c0.4-0.2,0.9-0.3,1.5-0.3c0.4,0,0.8,0.1,1.2,0.2
	c0.4,0.1,0.7,0.3,1,0.5c0.3,0.2,0.5,0.5,0.6,0.9c0.2,0.4,0.2,0.8,0.2,1.2c0,0.4,0,0.8-0.1,1.1c-0.1,0.3-0.2,0.7-0.4,1
	c-0.2,0.3-0.4,0.6-0.7,0.9c-0.3,0.3-0.6,0.6-1,0.8c-0.5,0.4-0.9,0.7-1.2,0.9c-0.3,0.2-0.6,0.5-0.8,0.7c-0.2,0.2-0.3,0.4-0.4,0.7
	c-0.1,0.2-0.1,0.5-0.1,0.7h5.2V23h-6.5v-0.5c0-0.4,0-0.8,0.1-1.2c0.1-0.3,0.3-0.7,0.5-1c0.2-0.3,0.5-0.6,0.9-0.9
	c0.4-0.3,0.8-0.7,1.3-1c0.4-0.3,0.7-0.5,1-0.8c0.3-0.2,0.5-0.5,0.6-0.7c0.2-0.2,0.3-0.5,0.3-0.8C195.5,15.8,195.6,15.5,195.6,15.3z"
	/>
</svg>
